<?xml version="1.0" standalone="no"?><!DOCTYPE svg PUBLIC "-//W3C//DTD SVG 1.1//EN" "http://www.w3.org/Graphics/SVG/1.1/DTD/svg11.dtd"><svg class="icon" width="200px" height="200.00px" viewBox="0 0 1024 1024" version="1.1" xmlns="http://www.w3.org/2000/svg"><path d="M712.0896 726.09792a30.72 30.72 0 0 1 39.79264-17.42848c73.48224 28.672 118.51776 70.28736 118.51776 121.91744 0 97.75104-166.2976 162.69312-368.64 162.69312s-368.64-64.94208-368.64-162.69312c0-51.63008 45.056-93.22496 118.51776-121.91744a30.72 30.72 0 0 1 22.34368 57.22112c-52.4288 20.48-79.42144 45.40416-79.42144 64.7168 0 48.0256 136.27392 101.23264 307.2 101.23264s307.2-53.20704 307.2-101.25312c0-19.29216-26.97216-44.21632-79.42144-64.69632a30.72 30.72 0 0 1-17.44896-39.79264z" fill="#00ff00" /><path d="M279.83872 222.76096l-3.54304 3.4816-3.4816 3.54304c-116.28544 120.15616-113.13152 311.82848 7.02464 428.09344l160.82944 155.648a87.8592 87.8592 0 0 0 122.18368 0l160.82944-155.648c2.37568-2.29376 4.7104-4.64896 7.02464-7.02464 116.28544-120.15616 113.13152-311.82848-7.02464-428.09344-123.71968-119.74656-320.1024-119.74656-443.84256 0z m42.72128 44.15488c99.90144-96.68608 258.49856-96.68608 358.4 0 95.76448 92.672 98.28352 245.4528 5.59104 341.21728l-2.7648 2.82624-163.6352 158.4128a26.4192 26.4192 0 0 1-36.7616 0l-160.82944-155.648c-95.76448-92.672-98.28352-245.4528-5.59104-341.21728l5.59104-5.59104z" fill="#00ff00" /><path d="M501.76 307.2a143.36 143.36 0 1 0 0 286.72 143.36 143.36 0 0 0 0-286.72z m0 61.44a81.92 81.92 0 1 1 0 163.84 81.92 81.92 0 0 1 0-163.84z" fill="#00ff00" /></svg>